<?xml version="1.0" encoding="UTF-8" standalone="no"?>
<svg
   xmlns:dc="http://purl.org/dc/elements/1.1/"
   xmlns:cc="http://creativecommons.org/ns#"
   xmlns:rdf="http://www.w3.org/1999/02/22-rdf-syntax-ns#"
   xmlns:svg="http://www.w3.org/2000/svg"
   xmlns="http://www.w3.org/2000/svg"
   xmlns:sodipodi="http://sodipodi.sourceforge.net/DTD/sodipodi-0.dtd"
   xmlns:inkscape="http://www.inkscape.org/namespaces/inkscape"
   inkscape:version="1.0 (4035a4fb49, 2020-05-01)"
   sodipodi:docname="bell.svg"
   id="svg6"
   version="1.1"
   class="feather feather-bell"
   stroke-linejoin="round"
   stroke-linecap="round"
   stroke-width="2"
   stroke="currentColor"
   fill="none"
   viewBox="0 0 24 24"
   height="24"
   width="24">
  <metadata
     id="metadata12">
    <rdf:RDF>
      <cc:Work
         rdf:about="">
        <dc:format>image/svg+xml</dc:format>
        <dc:type
           rdf:resource="http://purl.org/dc/dcmitype/StillImage" />
      </cc:Work>
    </rdf:RDF>
  </metadata>
  <defs
     id="defs10" />
  <sodipodi:namedview
     inkscape:current-layer="svg6"
     inkscape:window-maximized="0"
     inkscape:window-y="218"
     inkscape:window-x="2030"
     inkscape:cy="12"
     inkscape:cx="12"
     inkscape:zoom="35.416667"
     showgrid="false"
     id="namedview8"
     inkscape:window-height="480"
     inkscape:window-width="687"
     inkscape:pageshadow="2"
     inkscape:pageopacity="0"
     guidetolerance="10"
     gridtolerance="10"
     objecttolerance="10"
     borderopacity="1"
     bordercolor="#666666"
     pagecolor="#ffffff" />
  <path
     id="path20"
     d="M 12 1 C 8.1458524 1 5 4.1458495 5 8 C 5 11.357143 4.2876465 13.428052 3.6230469 14.646484 C 2.9584473 15.864917 2.4453125 16.167969 2.4453125 16.167969 A 1.0001 1.0001 0 0 0 3 18 L 21 18 A 1.0001 1.0001 0 0 0 21.554688 16.167969 C 21.554688 16.167969 21.041553 15.864917 20.376953 14.646484 C 19.712354 13.428052 19 11.357143 19 8 A 1 1 0 0 0 18.921875 7.6171875 C 18.71108 3.9497609 15.718457 1 12 1 z M 12 3 C 14.773269 3 17 5.226729 17 8 A 1 1 0 0 0 17.023438 8.2109375 C 17.058362 11.715841 17.806832 14.107122 18.623047 15.603516 C 18.771679 15.876007 18.795407 15.779588 18.947266 16 L 5.0527344 16 C 5.2045926 15.779588 5.2283214 15.876007 5.3769531 15.603516 C 6.2123535 14.071948 7 11.642857 7 8 C 7 5.226729 9.2267307 3 12 3 z "
     style="color:#000000;font-style:normal;font-variant:normal;font-weight:normal;font-stretch:normal;font-size:medium;line-height:normal;font-family:sans-serif;font-variant-ligatures:normal;font-variant-position:normal;font-variant-caps:normal;font-variant-numeric:normal;font-variant-alternates:normal;font-variant-east-asian:normal;font-feature-settings:normal;font-variation-settings:normal;text-indent:0;text-align:start;text-decoration:none;text-decoration-line:none;text-decoration-style:solid;text-decoration-color:#000000;letter-spacing:normal;word-spacing:normal;text-transform:none;writing-mode:lr-tb;direction:ltr;text-orientation:mixed;dominant-baseline:auto;baseline-shift:baseline;text-anchor:start;white-space:normal;shape-padding:0;shape-margin:0;inline-size:0;clip-rule:nonzero;display:inline;overflow:visible;visibility:visible;isolation:auto;mix-blend-mode:normal;color-interpolation:sRGB;color-interpolation-filters:linearRGB;solid-color:#000000;solid-opacity:1;vector-effect:none;fill:#000000;fill-opacity:1;fill-rule:nonzero;stroke:none;stroke-width:2;stroke-linecap:butt;stroke-linejoin:miter;stroke-miterlimit:4;stroke-dasharray:none;stroke-dashoffset:0;stroke-opacity:1;color-rendering:auto;image-rendering:auto;shape-rendering:auto;text-rendering:auto;enable-background:accumulate;stop-color:#000000;stop-opacity:1;opacity:1" />
  <path
     id="path16"
     d="M 10.306641 20 A 1 1 0 0 0 9.7675781 20.134766 A 1 1 0 0 0 9.4042969 21.501953 C 10.536438 23.45364 13.463562 23.45364 14.595703 21.501953 A 1 1 0 0 0 14.232422 20.134766 A 1 1 0 0 0 12.865234 20.498047 C 12.455969 21.203576 11.544031 21.203576 11.134766 20.498047 A 1 1 0 0 0 10.306641 20 z "
     style="color:#000000;font-style:normal;font-variant:normal;font-weight:normal;font-stretch:normal;font-size:medium;line-height:normal;font-family:sans-serif;font-variant-ligatures:normal;font-variant-position:normal;font-variant-caps:normal;font-variant-numeric:normal;font-variant-alternates:normal;font-variant-east-asian:normal;font-feature-settings:normal;font-variation-settings:normal;text-indent:0;text-align:start;text-decoration:none;text-decoration-line:none;text-decoration-style:solid;text-decoration-color:#000000;letter-spacing:normal;word-spacing:normal;text-transform:none;writing-mode:lr-tb;direction:ltr;text-orientation:mixed;dominant-baseline:auto;baseline-shift:baseline;text-anchor:start;white-space:normal;shape-padding:0;shape-margin:0;inline-size:0;clip-rule:nonzero;display:inline;overflow:visible;visibility:visible;isolation:auto;mix-blend-mode:normal;color-interpolation:sRGB;color-interpolation-filters:linearRGB;solid-color:#000000;solid-opacity:1;vector-effect:none;fill:#000000;fill-opacity:1;fill-rule:nonzero;stroke:none;stroke-width:2;stroke-linecap:butt;stroke-linejoin:miter;stroke-miterlimit:4;stroke-dasharray:none;stroke-dashoffset:0;stroke-opacity:1;color-rendering:auto;image-rendering:auto;shape-rendering:auto;text-rendering:auto;enable-background:accumulate;stop-color:#000000;stop-opacity:1;opacity:1" />
</svg>
