<?xml version="1.0" encoding="UTF-8" standalone="no"?>
<svg
   xmlns:dc="http://purl.org/dc/elements/1.1/"
   xmlns:cc="http://creativecommons.org/ns#"
   xmlns:rdf="http://www.w3.org/1999/02/22-rdf-syntax-ns#"
   xmlns:svg="http://www.w3.org/2000/svg"
   xmlns="http://www.w3.org/2000/svg"
   xmlns:sodipodi="http://sodipodi.sourceforge.net/DTD/sodipodi-0.dtd"
   xmlns:inkscape="http://www.inkscape.org/namespaces/inkscape"
   inkscape:version="1.0 (4035a4fb49, 2020-05-01)"
   sodipodi:docname="message-circle.svg"
   id="svg4"
   version="1.1"
   class="feather feather-message-circle"
   stroke-linejoin="round"
   stroke-linecap="round"
   stroke-width="2"
   stroke="currentColor"
   fill="none"
   viewBox="0 0 24 24"
   height="24"
   width="24">
  <metadata
     id="metadata10">
    <rdf:RDF>
      <cc:Work
         rdf:about="">
        <dc:format>image/svg+xml</dc:format>
        <dc:type
           rdf:resource="http://purl.org/dc/dcmitype/StillImage" />
      </cc:Work>
    </rdf:RDF>
  </metadata>
  <defs
     id="defs8" />
  <sodipodi:namedview
     inkscape:current-layer="svg4"
     inkscape:window-maximized="1"
     inkscape:window-y="17"
     inkscape:window-x="-8"
     inkscape:cy="12"
     inkscape:cx="12"
     inkscape:zoom="35.416667"
     showgrid="false"
     id="namedview6"
     inkscape:window-height="987"
     inkscape:window-width="1680"
     inkscape:pageshadow="2"
     inkscape:pageopacity="0"
     guidetolerance="10"
     gridtolerance="10"
     objecttolerance="10"
     borderopacity="1"
     bordercolor="#666666"
     pagecolor="#ffffff" />
  <path
     id="path14"
     d="M 12.5 2 C 11.024786 1.9964611 9.5709729 2.3413759 8.2539062 3.0058594 C 5.0383094 4.612962 3.0021345 7.903323 3 11.498047 C 2.9965636 12.816067 3.3115515 14.102752 3.84375 15.304688 L 2.0507812 20.683594 A 1.0001 1.0001 0 0 0 3.3164062 21.949219 L 8.6953125 20.15625 C 9.8972484 20.688448 11.183933 21.003436 12.501953 21 C 16.095207 20.997866 19.384366 18.963317 20.992188 15.75 L 20.992188 15.748047 C 21.657708 14.429806 22.00385 12.974771 22 11.498047 L 22 11 A 1.0001 1.0001 0 0 0 21.998047 10.945312 C 21.732326 6.1288378 17.871162 2.2676741 13.054688 2.0019531 A 1.0001 1.0001 0 0 0 13 2 L 12.501953 2 L 12.5 2 z M 12.498047 4 A 1.0001 1.0001 0 0 0 12.5 4 L 12.953125 4 C 16.761562 4.2142779 19.785722 7.2384381 20 11.046875 L 20 11.5 A 1.0001 1.0001 0 0 0 20 11.501953 C 20.003031 12.664349 19.731103 13.812054 19.207031 14.849609 A 1.0001 1.0001 0 0 0 19.205078 14.853516 C 17.934393 17.395986 15.342323 18.9989 12.5 19 A 1.0001 1.0001 0 0 0 12.498047 19 C 11.335651 19.003031 10.187946 18.731103 9.1503906 18.207031 A 1.0001 1.0001 0 0 0 8.3828125 18.150391 L 4.5820312 19.417969 L 5.8496094 15.617188 A 1.0001 1.0001 0 0 0 5.7929688 14.849609 C 5.268897 13.812054 4.9969693 12.664349 5 11.501953 A 1.0001 1.0001 0 0 0 5 11.5 C 5.0010998 8.6576774 6.6040135 6.0656072 9.1464844 4.7949219 A 1.0001 1.0001 0 0 0 9.1503906 4.7929688 C 10.187946 4.268897 11.335651 3.9969693 12.498047 4 z "
     style="color:#000000;font-style:normal;font-variant:normal;font-weight:normal;font-stretch:normal;font-size:medium;line-height:normal;font-family:sans-serif;font-variant-ligatures:normal;font-variant-position:normal;font-variant-caps:normal;font-variant-numeric:normal;font-variant-alternates:normal;font-variant-east-asian:normal;font-feature-settings:normal;font-variation-settings:normal;text-indent:0;text-align:start;text-decoration:none;text-decoration-line:none;text-decoration-style:solid;text-decoration-color:#000000;letter-spacing:normal;word-spacing:normal;text-transform:none;writing-mode:lr-tb;direction:ltr;text-orientation:mixed;dominant-baseline:auto;baseline-shift:baseline;text-anchor:start;white-space:normal;shape-padding:0;shape-margin:0;inline-size:0;clip-rule:nonzero;display:inline;overflow:visible;visibility:visible;isolation:auto;mix-blend-mode:normal;color-interpolation:sRGB;color-interpolation-filters:linearRGB;solid-color:#000000;solid-opacity:1;vector-effect:none;fill:#000000;fill-opacity:1;fill-rule:nonzero;stroke:none;stroke-width:2;stroke-linecap:butt;stroke-linejoin:miter;stroke-miterlimit:4;stroke-dasharray:none;stroke-dashoffset:0;stroke-opacity:1;color-rendering:auto;image-rendering:auto;shape-rendering:auto;text-rendering:auto;enable-background:accumulate;stop-color:#000000;stop-opacity:1;opacity:1" />
</svg>
