<?xml version="1.0" encoding="UTF-8" standalone="no"?>
<svg
   xmlns:dc="http://purl.org/dc/elements/1.1/"
   xmlns:cc="http://creativecommons.org/ns#"
   xmlns:rdf="http://www.w3.org/1999/02/22-rdf-syntax-ns#"
   xmlns:svg="http://www.w3.org/2000/svg"
   xmlns="http://www.w3.org/2000/svg"
   xmlns:sodipodi="http://sodipodi.sourceforge.net/DTD/sodipodi-0.dtd"
   xmlns:inkscape="http://www.inkscape.org/namespaces/inkscape"
   inkscape:version="1.0 (4035a4fb49, 2020-05-01)"
   sodipodi:docname="settings.svg"
   id="svg6"
   version="1.1"
   class="feather feather-settings"
   stroke-linejoin="round"
   stroke-linecap="round"
   stroke-width="2"
   stroke="currentColor"
   fill="none"
   viewBox="0 0 24 24"
   height="24"
   width="24">
  <metadata
     id="metadata12">
    <rdf:RDF>
      <cc:Work
         rdf:about="">
        <dc:format>image/svg+xml</dc:format>
        <dc:type
           rdf:resource="http://purl.org/dc/dcmitype/StillImage" />
      </cc:Work>
    </rdf:RDF>
  </metadata>
  <defs
     id="defs10" />
  <sodipodi:namedview
     inkscape:current-layer="svg6"
     inkscape:window-maximized="0"
     inkscape:window-y="25"
     inkscape:window-x="0"
     inkscape:cy="12"
     inkscape:cx="12"
     inkscape:zoom="35.416667"
     showgrid="false"
     id="namedview8"
     inkscape:window-height="480"
     inkscape:window-width="687"
     inkscape:pageshadow="2"
     inkscape:pageopacity="0"
     guidetolerance="10"
     gridtolerance="10"
     objecttolerance="10"
     borderopacity="1"
     bordercolor="#666666"
     pagecolor="#ffffff" />
  <path
     id="path17"
     d="M 12 8 C 9.8027056 8 8 9.8027056 8 12 C 8 14.197294 9.8027056 16 12 16 C 14.059067 16 15.712602 14.397947 15.919922 12.390625 A 1 1 0 0 0 16 12 A 1 1 0 0 0 15.921875 11.615234 C 15.717453 9.6049647 14.061192 8 12 8 z M 12 10 C 13.116414 10 14 10.883586 14 12 C 14 13.116414 13.116414 14 12 14 C 10.883586 14 10 13.116414 10 12 C 10 10.883586 10.883586 10 12 10 z "
     style="color:#000000;font-style:normal;font-variant:normal;font-weight:normal;font-stretch:normal;font-size:medium;line-height:normal;font-family:sans-serif;font-variant-ligatures:normal;font-variant-position:normal;font-variant-caps:normal;font-variant-numeric:normal;font-variant-alternates:normal;font-variant-east-asian:normal;font-feature-settings:normal;font-variation-settings:normal;text-indent:0;text-align:start;text-decoration:none;text-decoration-line:none;text-decoration-style:solid;text-decoration-color:#000000;letter-spacing:normal;word-spacing:normal;text-transform:none;writing-mode:lr-tb;direction:ltr;text-orientation:mixed;dominant-baseline:auto;baseline-shift:baseline;text-anchor:start;white-space:normal;shape-padding:0;shape-margin:0;inline-size:0;clip-rule:nonzero;display:inline;overflow:visible;visibility:visible;isolation:auto;mix-blend-mode:normal;color-interpolation:sRGB;color-interpolation-filters:linearRGB;solid-color:#000000;solid-opacity:1;vector-effect:none;fill:#000000;fill-opacity:1;fill-rule:nonzero;stroke:none;stroke-width:2;stroke-linecap:butt;stroke-linejoin:miter;stroke-miterlimit:4;stroke-dasharray:none;stroke-dashoffset:0;stroke-opacity:1;color-rendering:auto;image-rendering:auto;shape-rendering:auto;text-rendering:auto;enable-background:accumulate;stop-color:#000000;stop-opacity:1;opacity:1" />
  <path
     id="path21"
     d="M 12 0 C 10.35499 0 9 1.3549904 9 3 L 9 3.1660156 C 8.9990241 3.410702 8.8447498 3.6111783 8.6308594 3.7226562 A 1.0001 1.0001 0 0 0 8.515625 3.765625 C 8.2697676 3.8741317 7.9909381 3.8226839 7.7988281 3.6347656 L 7.7480469 3.5839844 C 6.5852505 2.4198937 4.6675397 2.4192333 3.5039062 3.5820312 C 2.3391688 4.7454736 2.3391688 6.6646826 3.5039062 7.828125 L 3.5546875 7.8789062 C 3.7426058 8.0710162 3.7940535 8.3498458 3.6855469 8.5957031 A 1.0001 1.0001 0 0 0 3.6621094 8.6542969 C 3.5689171 8.9076836 3.3363132 9.0737647 3.0664062 9.0800781 L 3 9.0800781 C 1.3549904 9.0800781 0 10.435069 0 12.080078 C 0 13.725088 1.3549904 15.080078 3 15.080078 L 3.1660156 15.080078 C 3.427769 15.081122 3.658605 15.23402 3.7617188 15.474609 A 1.0001 1.0001 0 0 0 3.765625 15.484375 C 3.8741317 15.730232 3.8226839 16.009062 3.6347656 16.201172 L 3.5839844 16.251953 C 2.4198937 17.414749 2.4192333 19.33246 3.5820312 20.496094 C 3.5824887 20.496552 3.5835267 20.495636 3.5839844 20.496094 C 3.584442 20.496551 3.5835264 20.497589 3.5839844 20.498047 C 4.7476179 21.660845 6.6653286 21.660184 7.828125 20.496094 L 7.8789062 20.445312 C 8.0710162 20.257394 8.3498458 20.205946 8.5957031 20.314453 A 1.0001 1.0001 0 0 0 8.6542969 20.337891 C 8.9076836 20.431083 9.0737647 20.663687 9.0800781 20.933594 L 9.0800781 21 C 9.0800781 22.64501 10.435069 24 12.080078 24 C 13.725088 24 15.080078 22.64501 15.080078 21 L 15.080078 20.833984 C 15.081122 20.572231 15.23402 20.341395 15.474609 20.238281 A 1.0001 1.0001 0 0 0 15.484375 20.234375 C 15.730232 20.125868 16.009062 20.177316 16.201172 20.365234 L 16.251953 20.416016 C 17.414749 21.580106 19.33246 21.580767 20.496094 20.417969 L 20.496094 20.416016 C 21.658811 19.253084 21.660387 17.337004 20.498047 16.173828 L 20.496094 16.171875 L 20.445312 16.121094 C 20.257394 15.928984 20.205946 15.650154 20.314453 15.404297 A 1.0001 1.0001 0 0 0 20.318359 15.394531 C 20.421473 15.153941 20.652309 15.001044 20.914062 15 L 21 15 C 22.64501 15 24 13.64501 24 12 C 24 10.35499 22.64501 9 21 9 L 20.833984 9 C 20.589298 8.9990241 20.388822 8.8447498 20.277344 8.6308594 A 1.0001 1.0001 0 0 0 20.234375 8.515625 C 20.125868 8.2697676 20.177316 7.9909381 20.365234 7.7988281 L 20.416016 7.7480469 C 21.580106 6.5852505 21.580767 4.6675397 20.417969 3.5039062 C 19.254526 2.3391688 17.335317 2.3391688 16.171875 3.5039062 L 16.121094 3.5546875 C 15.928984 3.7426058 15.650154 3.7940535 15.404297 3.6855469 A 1.0001 1.0001 0 0 0 15.394531 3.6816406 C 15.153941 3.5785269 15.001044 3.3476909 15 3.0859375 L 15 3 C 15 1.3549904 13.64501 0 12 0 z M 12 2 C 12.564129 2 13 2.4358706 13 3 L 13 3.0898438 A 1.0001 1.0001 0 0 0 13 3.09375 C 13.004194 4.1453718 13.636181 5.0993955 14.601562 5.515625 C 15.588683 5.9485761 16.748714 5.7383737 17.519531 4.984375 A 1.0001 1.0001 0 0 0 17.527344 4.9765625 L 17.587891 4.9179688 A 1.0001 1.0001 0 0 0 17.587891 4.9160156 C 17.986905 4.5165575 18.602939 4.5165575 19.001953 4.9160156 A 1.0001 1.0001 0 0 0 19.003906 4.9179688 C 19.403364 5.3169827 19.403364 5.9330173 19.003906 6.3320312 A 1.0001 1.0001 0 0 0 19.001953 6.3320312 L 18.943359 6.3925781 A 1.0001 1.0001 0 0 0 18.935547 6.4003906 C 18.180133 7.1726541 17.968111 8.335896 18.404297 9.3242188 L 18.320312 8.9199219 L 18.320312 9 A 1.0001 1.0001 0 0 0 18.400391 9.3945312 C 18.815413 10.362883 19.772639 10.995798 20.826172 11 A 1.0001 1.0001 0 0 0 20.830078 11 L 21 11 C 21.564129 11 22 11.435871 22 12 C 22 12.564129 21.564129 13 21 13 L 20.910156 13 A 1.0001 1.0001 0 0 0 20.90625 13 C 19.854628 13.004194 18.900605 13.636181 18.484375 14.601562 C 18.051424 15.588683 18.261626 16.748714 19.015625 17.519531 A 1.0001 1.0001 0 0 0 19.023438 17.527344 L 19.082031 17.587891 A 1.0001 1.0001 0 0 0 19.083984 17.587891 C 19.483442 17.986905 19.483442 18.602939 19.083984 19.001953 A 1.0001 1.0001 0 0 0 19.082031 19.003906 C 18.683017 19.403364 18.066983 19.403364 17.667969 19.003906 A 1.0001 1.0001 0 0 0 17.667969 19.001953 L 17.607422 18.943359 A 1.0001 1.0001 0 0 0 17.599609 18.935547 C 16.828792 18.181548 15.668761 17.971346 14.681641 18.404297 C 13.716259 18.820526 13.084272 19.77455 13.080078 20.826172 A 1.0001 1.0001 0 0 0 13.080078 20.830078 L 13.080078 21 C 13.080078 21.564129 12.644208 22 12.080078 22 C 11.515949 22 11.080078 21.564129 11.080078 21 L 11.080078 20.910156 A 1.0001 1.0001 0 0 0 11.080078 20.886719 C 11.054965 19.813111 10.372293 18.863135 9.3710938 18.480469 C 8.3897628 18.062736 7.2444232 18.268339 6.4804688 19.015625 A 1.0001 1.0001 0 0 0 6.4726562 19.023438 L 6.4121094 19.082031 A 1.0001 1.0001 0 0 0 6.4121094 19.083984 C 6.0130954 19.483442 5.3970608 19.483442 4.9980469 19.083984 A 1.0001 1.0001 0 0 0 4.9960938 19.082031 C 4.5966357 18.683017 4.5966357 18.066983 4.9960938 17.667969 A 1.0001 1.0001 0 0 0 4.9980469 17.667969 L 5.0566406 17.607422 A 1.0001 1.0001 0 0 0 5.0644531 17.599609 C 5.8184518 16.828792 6.0286542 15.668761 5.5957031 14.681641 C 5.1794736 13.716259 4.2254499 13.084272 3.1738281 13.080078 A 1.0001 1.0001 0 0 0 3.1699219 13.080078 L 3 13.080078 C 2.4358706 13.080078 2 12.644208 2 12.080078 C 2 11.515949 2.4358706 11.080078 3 11.080078 L 3.0898438 11.080078 A 1.0001 1.0001 0 0 0 3.1132812 11.080078 C 4.1868886 11.054965 5.1368653 10.372293 5.5195312 9.3710938 C 5.9372641 8.3897628 5.7316606 7.2444232 4.984375 6.4804688 A 1.0001 1.0001 0 0 0 4.9765625 6.4726562 L 4.9179688 6.4121094 A 1.0001 1.0001 0 0 0 4.9160156 6.4121094 C 4.5165575 6.0130954 4.5165575 5.3970608 4.9160156 4.9980469 A 1.0001 1.0001 0 0 0 4.9179688 4.9960938 C 5.3169827 4.5966357 5.9330173 4.5966357 6.3320312 4.9960938 A 1.0001 1.0001 0 0 0 6.3320312 4.9980469 L 6.3925781 5.0566406 A 1.0001 1.0001 0 0 0 6.4003906 5.0644531 C 7.1726541 5.8198666 8.335896 6.0318894 9.3242188 5.5957031 L 8.9199219 5.6796875 L 9 5.6796875 A 1.0001 1.0001 0 0 0 9.3945312 5.5996094 C 10.362883 5.1845865 10.995798 4.2273606 11 3.1738281 A 1.0001 1.0001 0 0 0 11 3.1699219 L 11 3 C 11 2.4358706 11.435871 2 12 2 z "
     style="color:#000000;font-style:normal;font-variant:normal;font-weight:normal;font-stretch:normal;font-size:medium;line-height:normal;font-family:sans-serif;font-variant-ligatures:normal;font-variant-position:normal;font-variant-caps:normal;font-variant-numeric:normal;font-variant-alternates:normal;font-variant-east-asian:normal;font-feature-settings:normal;font-variation-settings:normal;text-indent:0;text-align:start;text-decoration:none;text-decoration-line:none;text-decoration-style:solid;text-decoration-color:#000000;letter-spacing:normal;word-spacing:normal;text-transform:none;writing-mode:lr-tb;direction:ltr;text-orientation:mixed;dominant-baseline:auto;baseline-shift:baseline;text-anchor:start;white-space:normal;shape-padding:0;shape-margin:0;inline-size:0;clip-rule:nonzero;display:inline;overflow:visible;visibility:visible;isolation:auto;mix-blend-mode:normal;color-interpolation:sRGB;color-interpolation-filters:linearRGB;solid-color:#000000;solid-opacity:1;vector-effect:none;fill:#000000;fill-opacity:1;fill-rule:nonzero;stroke:none;stroke-width:2;stroke-linecap:butt;stroke-linejoin:miter;stroke-miterlimit:4;stroke-dasharray:none;stroke-dashoffset:0;stroke-opacity:1;color-rendering:auto;image-rendering:auto;shape-rendering:auto;text-rendering:auto;enable-background:accumulate;stop-color:#000000;stop-opacity:1;opacity:1" />
</svg>
